{
	"asset":{
		"copyright":"Carsten Heisterkamp",
		"generator":"Khronos glTF Blender I/O v3.6.27",
		"version":"2.0"
	},
	"extensionsUsed":[
		"KHR_materials_emissive_strength",
		"KHR_materials_clearcoat",
		"KHR_materials_specular",
		"KHR_materials_ior",
		"KHR_materials_transmission"
	],
	"scene":0,
	"scenes":[
		{
			"name":"Scene",
			"nodes":[
				0,
				1,
				2,
				3,
				4,
				5,
				6,
				7,
				8,
				9,
				10,
				11,
				12
			]
		}
	],
	"nodes":[
		{
			"mesh":0,
			"name":"Cylinder",
			"scale":[
				0.13156047463417053,
				1.1026331186294556,
				0.13156047463417053
			],
			"translation":[
				3.693798780441284,
				1.3355692625045776,
				1.08949613571167
			]
		},
		{
			"mesh":1,
			"name":"Sphere",
			"scale":[
				0.4785503149032593,
				0.4785503149032593,
				0.4785503149032593
			],
			"translation":[
				2.588473081588745,
				1.3828258514404297,
				0.014847099781036377
			]
		},
		{
			"mesh":2,
			"name":"Fog Volume",
			"scale":[
				30,
				20,
				30
			],
			"translation":[
				0,
				20,
				0
			]
		},
		{
			"mesh":3,
			"name":"Arena"
		},
		{
			"mesh":4,
			"name":"Arean Cube",
			"translation":[
				0,
				20,
				0
			]
		},
		{
			"mesh":5,
			"name":"Cube Green",
			"rotation":[
				0.19134169816970825,
				0.19134171307086945,
				-0.4619397521018982,
				0.8446232080459595
			],
			"scale":[
				0.4999999701976776,
				0.5,
				0.5
			],
			"translation":[
				-1.9366168975830078,
				1.6408898830413818,
				-0.8675496578216553
			]
		},
		{
			"mesh":6,
			"name":"Cube Prple",
			"translation":[
				2.918910026550293,
				3.9713425636291504,
				-5.170543193817139
			]
		},
		{
			"mesh":7,
			"name":"Cube Blue",
			"rotation":[
				0,
				0.2588190734386444,
				0,
				0.965925931930542
			],
			"translation":[
				-1.8521537780761719,
				3.133333683013916,
				-12.80507755279541
			]
		},
		{
			"mesh":8,
			"name":"Fia Geometry",
			"translation":[
				0,
				0.7496598362922668,
				0.05178132653236389
			]
		},
		{
			"mesh":9,
			"name":"Eye Left Outer"
		},
		{
			"mesh":10,
			"name":"Exe Right Outer"
		},
		{
			"mesh":11,
			"name":"Eye Right Inner"
		},
		{
			"mesh":12,
			"name":"Exe Left Inner",
			"rotation":[
				0,
				0.38768598437309265,
				0,
				0.9217914938926697
			],
			"translation":[
				0.30150356888771057,
				1.0357743501663208,
				0.6146814227104187
			]
		}
	],
	"materials":[
		{
			"doubleSided":true,
			"emissiveFactor":[
				1,
				1,
				1
			],
			"extensions":{
				"KHR_materials_emissive_strength":{
					"emissiveStrength":12.799999237060547
				}
			},
			"name":"Neon",
			"pbrMetallicRoughness":{
				"baseColorFactor":[
					0.800000011920929,
					0.800000011920929,
					0.800000011920929,
					1
				],
				"metallicFactor":0,
				"roughnessFactor":0.5
			}
		},
		{
			"doubleSided":true,
			"name":"Fog",
			"pbrMetallicRoughness":{}
		},
		{
			"doubleSided":true,
			"emissiveFactor":[
				1,
				1,
				1
			],
			"extensions":{
				"KHR_materials_clearcoat":{
					"clearcoatFactor":0.5954545736312866,
					"clearcoatRoughnessFactor":0.029999999329447746
				}
			},
			"name":"Tron Black Cross",
			"pbrMetallicRoughness":{
				"baseColorFactor":[
					0,
					0,
					0,
					1
				],
				"metallicFactor":0,
				"roughnessFactor":0.28904885053634644
			}
		},
		{
			"doubleSided":true,
			"emissiveFactor":[
				0.025494370609521866,
				1,
				0
			],
			"extensions":{
				"KHR_materials_clearcoat":{
					"clearcoatFactor":0.5954545736312866,
					"clearcoatRoughnessFactor":0.029999999329447746
				}
			},
			"name":"Tron Black XL Greem",
			"pbrMetallicRoughness":{
				"baseColorFactor":[
					0,
					0,
					0,
					1
				],
				"metallicFactor":0,
				"roughnessFactor":0.28904885053634644
			}
		},
		{
			"doubleSided":true,
			"emissiveFactor":[
				1,
				0,
				0.9435890913009644
			],
			"extensions":{
				"KHR_materials_clearcoat":{
					"clearcoatFactor":0.5954545736312866,
					"clearcoatRoughnessFactor":0.029999999329447746
				}
			},
			"name":"Tron Black XL",
			"pbrMetallicRoughness":{
				"baseColorFactor":[
					0,
					0,
					0,
					1
				],
				"metallicFactor":0,
				"roughnessFactor":0.28904885053634644
			}
		},
		{
			"doubleSided":true,
			"emissiveFactor":[
				0.0024273216258734465,
				0.34191393852233887,
				1
			],
			"extensions":{
				"KHR_materials_clearcoat":{
					"clearcoatFactor":0.5954545736312866,
					"clearcoatRoughnessFactor":0.029999999329447746
				}
			},
			"name":"Tron Black XL 2Y",
			"pbrMetallicRoughness":{
				"baseColorFactor":[
					0,
					0,
					0,
					1
				],
				"metallicFactor":0,
				"roughnessFactor":0.28904885053634644
			}
		},
		{
			"doubleSided":true,
			"extensions":{
				"KHR_materials_specular":{
					"specularColorFactor":[
						0.3036438606496998,
						0.3036438606496998,
						0.3036438606496998
					]
				},
				"KHR_materials_ior":{
					"ior":1.4500000476837158
				}
			},
			"name":"Fia Body",
			"pbrMetallicRoughness":{
				"metallicFactor":0.23312883079051971
			}
		},
		{
			"doubleSided":true,
			"extensions":{
				"KHR_materials_transmission":{
					"transmissionFactor":1
				},
				"KHR_materials_specular":{
					"specularColorFactor":[
						1,
						1,
						1
					]
				},
				"KHR_materials_ior":{
					"ior":1.3760000467300415
				}
			},
			"name":"Eye Outer",
			"pbrMetallicRoughness":{
				"baseColorFactor":[
					0.800000011920929,
					0.800000011920929,
					0.800000011920929,
					1
				],
				"metallicFactor":0,
				"roughnessFactor":0.04738879203796387
			}
		},
		{
			"doubleSided":true,
			"emissiveFactor":[
				0.4200000464916229,
				0.4200000464916229,
				0.4200000464916229
			],
			"name":"Eye Inner",
			"pbrMetallicRoughness":{
				"metallicFactor":0,
				"roughnessFactor":0.19395017623901367
			}
		}
	],
	"meshes":[
		{
			"name":"Cylinder",
			"primitives":[
				{
					"attributes":{
						"POSITION":0,
						"NORMAL":1,
						"TEXCOORD_0":2
					},
					"indices":3,
					"material":0
				}
			]
		},
		{
			"name":"Sphere.002",
			"primitives":[
				{
					"attributes":{
						"POSITION":4,
						"NORMAL":5,
						"TEXCOORD_0":6
					},
					"indices":7,
					"material":0
				}
			]
		},
		{
			"name":"Cube.005",
			"primitives":[
				{
					"attributes":{
						"POSITION":8,
						"NORMAL":9,
						"TEXCOORD_0":10
					},
					"indices":11,
					"material":1
				}
			]
		},
		{
			"name":"Cube.004",
			"primitives":[
				{
					"attributes":{
						"POSITION":12,
						"NORMAL":13,
						"TEXCOORD_0":14
					},
					"indices":15,
					"material":2
				}
			]
		},
		{
			"name":"Cube.006",
			"primitives":[
				{
					"attributes":{
						"POSITION":16,
						"NORMAL":17,
						"TEXCOORD_0":18
					},
					"indices":19,
					"material":2
				}
			]
		},
		{
			"name":"Cube",
			"primitives":[
				{
					"attributes":{
						"POSITION":20,
						"NORMAL":21,
						"TEXCOORD_0":22
					},
					"indices":11,
					"material":3
				}
			]
		},
		{
			"name":"Cube.002",
			"primitives":[
				{
					"attributes":{
						"POSITION":23,
						"NORMAL":24,
						"TEXCOORD_0":25
					},
					"indices":11,
					"material":4
				}
			]
		},
		{
			"name":"Cube.003",
			"primitives":[
				{
					"attributes":{
						"POSITION":26,
						"NORMAL":27,
						"TEXCOORD_0":28
					},
					"indices":11,
					"material":5
				}
			]
		},
		{
			"extras":{
				"targetNames":[
					"Key 1"
				]
			},
			"name":"Body",
			"primitives":[
				{
					"attributes":{
						"COLOR_0":29,
						"POSITION":30,
						"NORMAL":31,
						"TEXCOORD_0":32
					},
					"indices":33,
					"material":6,
					"targets":[
						{
							"POSITION":34,
							"NORMAL":35
						}
					]
				}
			],
			"weights":[
				0.8239436149597168
			]
		},
		{
			"name":"Sphere",
			"primitives":[
				{
					"attributes":{
						"POSITION":36,
						"NORMAL":37,
						"TEXCOORD_0":38
					},
					"indices":39,
					"material":7
				}
			]
		},
		{
			"name":"Sphere.003",
			"primitives":[
				{
					"attributes":{
						"POSITION":40,
						"NORMAL":41,
						"TEXCOORD_0":42
					},
					"indices":39,
					"material":7
				}
			]
		},
		{
			"extras":{
				"targetNames":[
					"Large",
					"Small"
				]
			},
			"name":"Sphere.005",
			"primitives":[
				{
					"attributes":{
						"POSITION":43,
						"NORMAL":44,
						"TEXCOORD_0":45
					},
					"indices":46,
					"material":8,
					"targets":[
						{
							"POSITION":47,
							"NORMAL":48
						},
						{
							"POSITION":49,
							"NORMAL":50
						}
					]
				}
			],
			"weights":[
				0,
				0
			]
		},
		{
			"extras":{
				"targetNames":[
					"Large",
					"Small"
				]
			},
			"name":"Sphere.001",
			"primitives":[
				{
					"attributes":{
						"POSITION":51,
						"NORMAL":52,
						"TEXCOORD_0":53
					},
					"indices":54,
					"material":8,
					"targets":[
						{
							"POSITION":55,
							"NORMAL":56
						},
						{
							"POSITION":57,
							"NORMAL":58
						}
					]
				}
			],
			"weights":[
				0,
				0
			]
		}
	],
	"accessors":[
		{
			"bufferView":0,
			"componentType":5126,
			"count":130,
			"max":[
				1,
				1,
				1
			],
			"min":[
				-1,
				-1,
				-1
			],
			"type":"VEC3"
		},
		{
			"bufferView":1,
			"componentType":5126,
			"count":130,
			"type":"VEC3"
		},
		{
			"bufferView":2,
			"componentType":5126,
			"count":130,
			"type":"VEC2"
		},
		{
			"bufferView":3,
			"componentType":5123,
			"count":372,
			"type":"SCALAR"
		},
		{
			"bufferView":4,
			"componentType":5126,
			"count":559,
			"max":[
				0.9999997019767761,
				1,
				0.9999993443489075
			],
			"min":[
				-0.9999990463256836,
				-1,
				-1
			],
			"type":"VEC3"
		},
		{
			"bufferView":5,
			"componentType":5126,
			"count":559,
			"type":"VEC3"
		},
		{
			"bufferView":6,
			"componentType":5126,
			"count":559,
			"type":"VEC2"
		},
		{
			"bufferView":7,
			"componentType":5123,
			"count":2880,
			"type":"SCALAR"
		},
		{
			"bufferView":8,
			"componentType":5126,
			"count":24,
			"max":[
				1,
				1,
				1
			],
			"min":[
				-1,
				-1,
				-1
			],
			"type":"VEC3"
		},
		{
			"bufferView":9,
			"componentType":5126,
			"count":24,
			"type":"VEC3"
		},
		{
			"bufferView":10,
			"componentType":5126,
			"count":24,
			"type":"VEC2"
		},
		{
			"bufferView":11,
			"componentType":5123,
			"count":36,
			"type":"SCALAR"
		},
		{
			"bufferView":12,
			"componentType":5126,
			"count":3833,
			"max":[
				40,
				40.08350372314453,
				40.000003814697266
			],
			"min":[
				-40,
				0.0835060253739357,
				-40.000003814697266
			],
			"type":"VEC3"
		},
		{
			"bufferView":13,
			"componentType":5126,
			"count":3833,
			"type":"VEC3"
		},
		{
			"bufferView":14,
			"componentType":5126,
			"count":3833,
			"type":"VEC2"
		},
		{
			"bufferView":15,
			"componentType":5123,
			"count":21504,
			"type":"SCALAR"
		},
		{
			"bufferView":16,
			"componentType":5126,
			"count":20,
			"max":[
				40,
				20,
				40
			],
			"min":[
				-40,
				-20,
				-40
			],
			"type":"VEC3"
		},
		{
			"bufferView":17,
			"componentType":5126,
			"count":20,
			"type":"VEC3"
		},
		{
			"bufferView":18,
			"componentType":5126,
			"count":20,
			"type":"VEC2"
		},
		{
			"bufferView":19,
			"componentType":5123,
			"count":30,
			"type":"SCALAR"
		},
		{
			"bufferView":20,
			"componentType":5126,
			"count":24,
			"max":[
				1,
				1,
				1
			],
			"min":[
				-1,
				-1,
				-1
			],
			"type":"VEC3"
		},
		{
			"bufferView":21,
			"componentType":5126,
			"count":24,
			"type":"VEC3"
		},
		{
			"bufferView":22,
			"componentType":5126,
			"count":24,
			"type":"VEC2"
		},
		{
			"bufferView":23,
			"componentType":5126,
			"count":24,
			"max":[
				1,
				1,
				1
			],
			"min":[
				-1,
				-1,
				-1
			],
			"type":"VEC3"
		},
		{
			"bufferView":24,
			"componentType":5126,
			"count":24,
			"type":"VEC3"
		},
		{
			"bufferView":25,
			"componentType":5126,
			"count":24,
			"type":"VEC2"
		},
		{
			"bufferView":26,
			"componentType":5126,
			"count":24,
			"max":[
				1.0000001192092896,
				3.200000047683716,
				1
			],
			"min":[
				-1.0000001192092896,
				-0.800000011920929,
				-1
			],
			"type":"VEC3"
		},
		{
			"bufferView":27,
			"componentType":5126,
			"count":24,
			"type":"VEC3"
		},
		{
			"bufferView":28,
			"componentType":5126,
			"count":24,
			"type":"VEC2"
		},
		{
			"bufferView":29,
			"componentType":5123,
			"count":948,
			"normalized":true,
			"type":"VEC4"
		},
		{
			"bufferView":30,
			"componentType":5126,
			"count":948,
			"max":[
				0.7482028007507324,
				0.7482030987739563,
				0.8353495597839355
			],
			"min":[
				4.963425226378604e-10,
				-0.7482030987739563,
				-0.8353495597839355
			],
			"type":"VEC3"
		},
		{
			"bufferView":31,
			"componentType":5126,
			"count":948,
			"type":"VEC3"
		},
		{
			"bufferView":32,
			"componentType":5126,
			"count":948,
			"type":"VEC2"
		},
		{
			"bufferView":33,
			"componentType":5123,
			"count":5436,
			"type":"SCALAR"
		},
		{
			"bufferView":34,
			"componentType":5126,
			"count":948,
			"max":[
				0.11883717775344849,
				0.1430506408214569,
				0.11221045255661011
			],
			"min":[
				-0.028639137744903564,
				-0.11574938893318176,
				-0.0340428352355957
			],
			"type":"VEC3"
		},
		{
			"bufferView":35,
			"componentType":5126,
			"count":948,
			"type":"VEC3"
		},
		{
			"bufferView":36,
			"componentType":5126,
			"count":559,
			"max":[
				0.4514212906360626,
				1.190657615661621,
				0.783769965171814
			],
			"min":[
				0.14142128825187683,
				0.8806576728820801,
				0.4737699329853058
			],
			"type":"VEC3"
		},
		{
			"bufferView":37,
			"componentType":5126,
			"count":559,
			"type":"VEC3"
		},
		{
			"bufferView":38,
			"componentType":5126,
			"count":559,
			"type":"VEC2"
		},
		{
			"bufferView":39,
			"componentType":5123,
			"count":2880,
			"type":"SCALAR"
		},
		{
			"bufferView":40,
			"componentType":5126,
			"count":559,
			"max":[
				-0.1432444453239441,
				1.190657615661621,
				0.783769965171814
			],
			"min":[
				-0.4532444477081299,
				0.8806576728820801,
				0.4737699329853058
			],
			"type":"VEC3"
		},
		{
			"bufferView":41,
			"componentType":5126,
			"count":559,
			"type":"VEC3"
		},
		{
			"bufferView":42,
			"componentType":5126,
			"count":559,
			"type":"VEC2"
		},
		{
			"bufferView":43,
			"componentType":5126,
			"count":8668,
			"max":[
				-0.147363543510437,
				1.18385910987854,
				0.7074975371360779
			],
			"min":[
				-0.4435329735279083,
				0.8876897096633911,
				0.4807421565055847
			],
			"type":"VEC3"
		},
		{
			"bufferView":44,
			"componentType":5126,
			"count":8668,
			"type":"VEC3"
		},
		{
			"bufferView":45,
			"componentType":5126,
			"count":8668,
			"type":"VEC2"
		},
		{
			"bufferView":46,
			"componentType":5123,
			"count":13080,
			"type":"SCALAR"
		},
		{
			"bufferView":47,
			"componentType":5126,
			"count":8668,
			"max":[
				0.017866313457489014,
				0.01786625385284424,
				0.002147972583770752
			],
			"min":[
				-0.017866313457489014,
				-0.017866313457489014,
				0
			],
			"type":"VEC3"
		},
		{
			"bufferView":48,
			"componentType":5126,
			"count":8668,
			"type":"VEC3"
		},
		{
			"bufferView":49,
			"componentType":5126,
			"count":8668,
			"max":[
				0.04595935344696045,
				0.04595935344696045,
				0
			],
			"min":[
				-0.04595935344696045,
				-0.04595935344696045,
				-0.012553095817565918
			],
			"type":"VEC3"
		},
		{
			"bufferView":50,
			"componentType":5126,
			"count":8668,
			"type":"VEC3"
		},
		{
			"bufferView":51,
			"componentType":5126,
			"count":8658,
			"max":[
				0.14808472990989685,
				0.14808472990989685,
				0.09281612932682037
			],
			"min":[
				-0.14808470010757446,
				-0.14808467030525208,
				-0.1339392513036728
			],
			"type":"VEC3"
		},
		{
			"bufferView":52,
			"componentType":5126,
			"count":8658,
			"type":"VEC3"
		},
		{
			"bufferView":53,
			"componentType":5126,
			"count":8658,
			"type":"VEC2"
		},
		{
			"bufferView":54,
			"componentType":5123,
			"count":13080,
			"type":"SCALAR"
		},
		{
			"bufferView":55,
			"componentType":5126,
			"count":8658,
			"max":[
				0.017866313457489014,
				0.01786625385284424,
				0.002147972583770752
			],
			"min":[
				-0.017866313457489014,
				-0.017866313457489014,
				0
			],
			"type":"VEC3"
		},
		{
			"bufferView":56,
			"componentType":5126,
			"count":8658,
			"type":"VEC3"
		},
		{
			"bufferView":57,
			"componentType":5126,
			"count":8658,
			"max":[
				0.04595934972167015,
				0.04595934972167015,
				0
			],
			"min":[
				-0.04595935717225075,
				-0.04595935717225075,
				-0.012553095817565918
			],
			"type":"VEC3"
		},
		{
			"bufferView":58,
			"componentType":5126,
			"count":8658,
			"type":"VEC3"
		}
	],
	"bufferViews":[
		{
			"buffer":0,
			"byteLength":1560,
			"byteOffset":0,
			"target":34962
		},
		{
			"buffer":0,
			"byteLength":1560,
			"byteOffset":1560,
			"target":34962
		},
		{
			"buffer":0,
			"byteLength":1040,
			"byteOffset":3120,
			"target":34962
		},
		{
			"buffer":0,
			"byteLength":744,
			"byteOffset":4160,
			"target":34963
		},
		{
			"buffer":0,
			"byteLength":6708,
			"byteOffset":4904,
			"target":34962
		},
		{
			"buffer":0,
			"byteLength":6708,
			"byteOffset":11612,
			"target":34962
		},
		{
			"buffer":0,
			"byteLength":4472,
			"byteOffset":18320,
			"target":34962
		},
		{
			"buffer":0,
			"byteLength":5760,
			"byteOffset":22792,
			"target":34963
		},
		{
			"buffer":0,
			"byteLength":288,
			"byteOffset":28552,
			"target":34962
		},
		{
			"buffer":0,
			"byteLength":288,
			"byteOffset":28840,
			"target":34962
		},
		{
			"buffer":0,
			"byteLength":192,
			"byteOffset":29128,
			"target":34962
		},
		{
			"buffer":0,
			"byteLength":72,
			"byteOffset":29320,
			"target":34963
		},
		{
			"buffer":0,
			"byteLength":45996,
			"byteOffset":29392,
			"target":34962
		},
		{
			"buffer":0,
			"byteLength":45996,
			"byteOffset":75388,
			"target":34962
		},
		{
			"buffer":0,
			"byteLength":30664,
			"byteOffset":121384,
			"target":34962
		},
		{
			"buffer":0,
			"byteLength":43008,
			"byteOffset":152048,
			"target":34963
		},
		{
			"buffer":0,
			"byteLength":240,
			"byteOffset":195056,
			"target":34962
		},
		{
			"buffer":0,
			"byteLength":240,
			"byteOffset":195296,
			"target":34962
		},
		{
			"buffer":0,
			"byteLength":160,
			"byteOffset":195536,
			"target":34962
		},
		{
			"buffer":0,
			"byteLength":60,
			"byteOffset":195696,
			"target":34963
		},
		{
			"buffer":0,
			"byteLength":288,
			"byteOffset":195756,
			"target":34962
		},
		{
			"buffer":0,
			"byteLength":288,
			"byteOffset":196044,
			"target":34962
		},
		{
			"buffer":0,
			"byteLength":192,
			"byteOffset":196332,
			"target":34962
		},
		{
			"buffer":0,
			"byteLength":288,
			"byteOffset":196524,
			"target":34962
		},
		{
			"buffer":0,
			"byteLength":288,
			"byteOffset":196812,
			"target":34962
		},
		{
			"buffer":0,
			"byteLength":192,
			"byteOffset":197100,
			"target":34962
		},
		{
			"buffer":0,
			"byteLength":288,
			"byteOffset":197292,
			"target":34962
		},
		{
			"buffer":0,
			"byteLength":288,
			"byteOffset":197580,
			"target":34962
		},
		{
			"buffer":0,
			"byteLength":192,
			"byteOffset":197868,
			"target":34962
		},
		{
			"buffer":0,
			"byteLength":7584,
			"byteOffset":198060,
			"target":34962
		},
		{
			"buffer":0,
			"byteLength":11376,
			"byteOffset":205644,
			"target":34962
		},
		{
			"buffer":0,
			"byteLength":11376,
			"byteOffset":217020,
			"target":34962
		},
		{
			"buffer":0,
			"byteLength":7584,
			"byteOffset":228396,
			"target":34962
		},
		{
			"buffer":0,
			"byteLength":10872,
			"byteOffset":235980,
			"target":34963
		},
		{
			"buffer":0,
			"byteLength":11376,
			"byteOffset":246852,
			"target":34962
		},
		{
			"buffer":0,
			"byteLength":11376,
			"byteOffset":258228,
			"target":34962
		},
		{
			"buffer":0,
			"byteLength":6708,
			"byteOffset":269604,
			"target":34962
		},
		{
			"buffer":0,
			"byteLength":6708,
			"byteOffset":276312,
			"target":34962
		},
		{
			"buffer":0,
			"byteLength":4472,
			"byteOffset":283020,
			"target":34962
		},
		{
			"buffer":0,
			"byteLength":5760,
			"byteOffset":287492,
			"target":34963
		},
		{
			"buffer":0,
			"byteLength":6708,
			"byteOffset":293252,
			"target":34962
		},
		{
			"buffer":0,
			"byteLength":6708,
			"byteOffset":299960,
			"target":34962
		},
		{
			"buffer":0,
			"byteLength":4472,
			"byteOffset":306668,
			"target":34962
		},
		{
			"buffer":0,
			"byteLength":104016,
			"byteOffset":311140,
			"target":34962
		},
		{
			"buffer":0,
			"byteLength":104016,
			"byteOffset":415156,
			"target":34962
		},
		{
			"buffer":0,
			"byteLength":69344,
			"byteOffset":519172,
			"target":34962
		},
		{
			"buffer":0,
			"byteLength":26160,
			"byteOffset":588516,
			"target":34963
		},
		{
			"buffer":0,
			"byteLength":104016,
			"byteOffset":614676,
			"target":34962
		},
		{
			"buffer":0,
			"byteLength":104016,
			"byteOffset":718692,
			"target":34962
		},
		{
			"buffer":0,
			"byteLength":104016,
			"byteOffset":822708,
			"target":34962
		},
		{
			"buffer":0,
			"byteLength":104016,
			"byteOffset":926724,
			"target":34962
		},
		{
			"buffer":0,
			"byteLength":103896,
			"byteOffset":1030740,
			"target":34962
		},
		{
			"buffer":0,
			"byteLength":103896,
			"byteOffset":1134636,
			"target":34962
		},
		{
			"buffer":0,
			"byteLength":69264,
			"byteOffset":1238532,
			"target":34962
		},
		{
			"buffer":0,
			"byteLength":26160,
			"byteOffset":1307796,
			"target":34963
		},
		{
			"buffer":0,
			"byteLength":103896,
			"byteOffset":1333956,
			"target":34962
		},
		{
			"buffer":0,
			"byteLength":103896,
			"byteOffset":1437852,
			"target":34962
		},
		{
			"buffer":0,
			"byteLength":103896,
			"byteOffset":1541748,
			"target":34962
		},
		{
			"buffer":0,
			"byteLength":103896,
			"byteOffset":1645644,
			"target":34962
		}
	],
	"buffers":[
		{
			"byteLength":1749540,
			"uri":"data:application/octet-stream;base64,"
		}
	]
}
