<?xml version="1.0" ?><svg style="enable-background:new 0 0 48 48;" version="1.1" viewBox="0 0 48 48" xml:space="preserve" xmlns="http://www.w3.org/2000/svg" xmlns:xlink="http://www.w3.org/1999/xlink"><g id="Icons"><g id="Icons_1_"><g><g><path d="M25.15192,22.20915c0-0.4997-0.0085-0.9997,0.0038-1.4991      c0.0056-0.2276-0.0674-0.3131-0.3035-0.3114c-1.2282,0.0088-2.4565,0.0083-3.6848,0.0002      c-0.2251-0.0015-0.3092,0.0598-0.3088,0.3c0.0063,4.5252,0.0062,9.0504,0.0002,13.5756      c-0.0004,0.2351,0.0747,0.3057,0.3047,0.3042c1.2848-0.0084,2.5697-0.0091,3.8545,0.0005      c0.2337,0.0018,0.2993-0.0704,0.2984-0.3031c-0.0084-2.1494-0.0111-4.299-0.0005-6.4484      c0.0026-0.5308,0.0352-1.0642,0.0981-1.5912c0.0686-0.5753,0.2528-1.1192,0.6571-1.558      c0.519-0.5633,1.1932-0.6903,1.9211-0.6767c1.0159,0.019,1.649,0.4923,1.9392,1.4648c0.1871,0.6267,0.2021,1.2711,0.2024,1.9169      c0.0012,2.2868,0.0002,4.5737,0.0009,6.8605c0.0001,0.3195,0.0104,0.3301,0.3245,0.3303      c1.2525,0.001,2.505,0.0006,3.7575,0.0003c0.3905,0,0.3925-0.0006,0.3909-0.3855c-0.0114-2.7707-0.0187-5.5415-0.0386-8.3122      c-0.0061-0.8488-0.12-1.6881-0.3524-2.5063c-0.3559-1.2527-1.0263-2.2744-2.2576-2.808      c-1.2883-0.5583-2.6375-0.6593-4.0015-0.3247C26.78032,20.52666,25.84982,21.18736,25.15192,22.20915z M18.18312,27.50175      c0-2.2624-0.004-4.5247,0.0058-6.787c0.001-0.2455-0.0645-0.319-0.3099-0.317c-1.2765,0.0105-2.5532,0.0098-3.8297,0.0005      c-0.2392-0.0018-0.3198,0.0652-0.3195,0.3146c0.0069,4.5166,0.0069,9.0331,0.0001,13.5497      c-0.0004,0.2471,0.0756,0.3185,0.3175,0.3166c1.2765-0.0097,2.5531-0.0098,3.8297,0.0001      c0.242,0.0019,0.3131-0.066,0.312-0.3148C18.17892,32.01025,18.18312,29.75595,18.18312,27.50175z M13.39222,15.99685      c0.0003,1.4106,1.1555,2.5918,2.5683,2.5777c1.4577-0.0146,2.5889-1.1126,2.5862-2.5806      c-0.0027-1.4936-1.1542-2.5815-2.5889-2.5732C14.42782,13.42965,13.39492,14.65415,13.39222,15.99685z" style="fill:#000;"/></g></g></g></g></svg>